<?xml version="1.0" encoding="UTF-8"?>
<svg width="60px" height="60px" viewBox="0 0 60 60" version="1.1" xmlns="http://www.w3.org/2000/svg" xmlns:xlink="http://www.w3.org/1999/xlink">
    <title>Bottles</title>
    <g id="Bottles" stroke="none" stroke-width="1" fill="none" fill-rule="evenodd">
        <g fill-rule="nonzero">
            <rect id="Rectangle" fill="#FFFFFF" opacity="0.15" transform="translate(30.000000, 30.000000) rotate(90.000000) translate(-30.000000, -30.000000) " x="3.55271368e-15" y="3.55271368e-15" width="60" height="60" rx="3.75"></rect>
            <rect id="Rectangle" fill="#BFC6FE" opacity="0.5" transform="translate(30.000000, 21.000000) rotate(90.000000) translate(-30.000000, -21.000000) " x="9" y="0" width="42" height="42" rx="4.18"></rect>
            <g id="Group-2" transform="translate(4.999872, 9.738449)">
                <path d="M43.0001286,21.5715512 L43.0001286,16.8415512 C43.0003521,16.5840726 42.7973836,16.3722794 42.5401285,16.3615512 L42.5401285,16.3615512 C40.6564688,16.2301728 38.7672534,16.1967944 36.8801285,16.2615512 L36.8201285,16.2615512 C36.5265703,16.2825724 36.2993768,16.5272424 36.3001266,16.8215512 C36.3267758,18.4271864 36.4469796,20.0299038 36.6601285,21.6215512 C38.5701285,21.6915512 40.5701285,21.8315512 42.6601285,21.9115512 L42.6601285,21.9115512 C42.8368596,21.9115512 42.9801285,21.7682824 42.9801285,21.5915512 L43.0001286,21.5715512 Z M37.4001285,17.4615512 C38.9301285,17.5215512 40.4601285,17.4615512 41.9901285,17.3815512 L42.2701285,21.2615512 L36.7501285,21.5315512 C37.0001285,20.0015512 37.2501285,18.7115512 37.4001285,17.4615512 Z" id="Shape" fill="#5161CF"></path>
                <polygon id="Path" fill="#5161CF" points="36.7001285 21.5915512 42.6301285 21.5915512 42.4501285 16.8615512 36.8801285 16.8615512"></polygon>
                <rect id="Rectangle" fill="#FFFFFF" x="12.9001285" y="6.27155125" width="16.63" height="34.28"></rect>
                <path d="M30.4901285,6.08155125 C30.3840346,5.90075232 30.2119786,5.76812581 30.0101285,5.71155125 C29.9008875,5.693276 29.7893694,5.693276 29.6801285,5.71155125 L29.2801285,5.71155125 L16.4401285,5.81155125 L13.2301285,5.81155125 L12.8301285,5.81155125 C12.6905773,5.79761321 12.550261,5.82918439 12.4301285,5.90155125 C12.2853199,5.99230978 12.1813616,6.1357005 12.1401285,6.30155125 C12.128276,6.40120004 12.128276,6.50190245 12.1401285,6.60155125 L12.1401285,7.26155125 L12.1401285,8.87155125 L12.3201285,15.2615512 L12.7101285,28.1015512 L12.8801285,34.5115512 L12.9301285,37.7215512 L13.0001285,39.2615512 L13.0001285,40.4615512 C13.0001285,40.6382824 13.1433973,40.7815512 13.3201285,40.7815512 C17.6001285,40.7815512 21.8801285,40.9115512 26.1601285,41.0615512 L27.7601285,41.0615512 L28.5601285,41.0615512 L29.1601285,41.0615512 C29.2698191,41.0732186 29.3804378,41.0732186 29.4901285,41.0615512 C29.6682428,41.0113881 29.8192489,40.8927405 29.9101285,40.7315512 C29.9800242,40.6064812 30.014591,40.4647574 30.0101285,40.3215512 L30.0101285,39.9115512 L30.0101285,39.1115512 L30.0701285,37.5115512 L30.3301285,31.2615512 C30.4201285,26.9915512 30.5001285,22.7115512 30.5201285,18.4315512 L30.5201285,12.0115512 L30.5201285,8.80155125 L30.5201285,6.54155125 C30.5511805,6.38827618 30.5408252,6.22949487 30.4901285,6.08155125 Z M29.4901285,8.73155125 L29.4001285,11.9415512 L29.2401285,18.3615512 C29.1401285,22.6415512 29.0701285,26.9182179 29.0301285,31.1915512 L29.0301285,37.6115512 L29.0301285,40.3215512 L26.1001285,40.4115512 C21.8201285,40.5615512 17.5401285,40.6415512 13.2601285,40.6915512 C13.0001285,40.6915512 13.0801285,40.3615512 13.0601285,40.1015512 L13.0601285,39.2615512 L13.0601285,37.6615512 L13.0001285,34.4815512 L13.0001285,28.0615512 L13.0001285,15.2615512 L13.0001285,8.85155125 L13.0001285,6.65155125 L13.3301285,6.65155125 L16.5401285,6.65155125 L29.3801285,6.74155125 L29.6301285,6.74155125 L29.6301285,7.13155125 L29.4901285,8.73155125 Z" id="Shape" fill="#5161CF"></path>
                <rect id="Rectangle" fill="#FFFFFF" x="19.0401285" y="0.901551247" width="4.49" height="4.8"></rect>
                <path d="M24.1701285,0.901551247 L24.1701285,0.841551247 C24.1623647,0.67969964 24.0905237,0.527587621 23.9704559,0.418776154 C23.8503881,0.309964688 23.6919608,0.253396081 23.5301285,0.261551247 C22.0061808,0.336447903 20.4910266,0.537130573 19.0001285,0.861551247 L18.7101285,5.70155125 L18.7101285,5.70155125 C18.7043852,5.87459709 18.8373199,6.02082521 19.0101285,6.03155125 L19.0101285,6.03155125 L23.5001285,6.22155125 C23.7548729,6.2291424 23.9745615,6.04391479 24.0101285,5.79155125 L24.0101285,5.69155125 C24.207704,4.10296895 24.2612553,2.49977704 24.1701285,0.901551247 L24.1701285,0.901551247 Z M22.8701285,1.49155125 C22.8209799,2.74970557 22.8644305,4.00977094 23.0001285,5.26155125 L19.4001285,5.41155125 L19.1301285,1.00155125 C20.5401285,1.17155125 21.7301285,1.38155125 22.8701285,1.49155125 Z" id="Shape" fill="#5161CF"></path>
                <path d="M25.0801285,0.161551247 L25.0801285,0.161551247 C23.8301285,0.161551247 22.5801285,-0.0184487535 21.3301285,0.00155124654 C20.0697382,0.0444470978 18.8136148,0.171395747 17.5701285,0.381551247 L17.4701285,0.381551247 L17.4701285,0.381551247 C17.3441762,0.432617787 17.2788058,0.572074578 17.3201285,0.701551247 C17.4601285,1.08155125 17.6101285,1.44155125 17.7401285,1.70155125 C20.0301285,1.82155125 22.4501285,2.02155125 24.9501285,2.11155125 C25.1656459,2.12097217 25.3562091,1.97275634 25.4001285,1.76155125 L25.4001285,1.76155125 L25.6201285,0.761551247 C25.6201285,0.761551247 25.6201285,0.711551247 25.6201285,0.681551247 C25.6231688,0.539200847 25.5665633,0.402060644 25.464002,0.303297955 C25.3614408,0.204535266 25.2222629,0.153143321 25.0801285,0.161551247 Z" id="Path" fill="#5161CF"></path>
                <path d="M42.0001285,20.9515512 C41.4536521,20.8446683 40.8949573,20.8143777 40.3401285,20.8615512 C39.8801285,20.8615512 39.3401285,20.8615512 38.9301285,20.8615512 C38.4161598,20.8085385 37.8971683,20.832129 37.3901285,20.9315512 C33.8350849,21.6876373 31.2527906,24.7690652 31.1301285,28.4015512 L31.1301285,40.5915512 L48.1301285,40.5915512 L48.1301285,28.4015512 C48.0061793,24.8178989 45.492826,21.7633341 42.0001285,20.9515512 Z" id="Path" fill="#EFF1FD"></path>
                <path d="M48.6501285,29.2615512 C48.6598136,28.283778 48.5250258,27.3099359 48.2501285,26.3715512 C47.935514,25.4423995 47.4543317,24.5783046 46.8301285,23.8215512 C45.5970266,22.3331428 43.9175129,21.2812553 42.0401285,20.8215512 C41.4737431,20.7119327 40.8948612,20.6816424 40.3201285,20.7315512 C39.7501285,20.7315512 39.1901285,20.7315512 38.6201285,20.7315512 C38.0411516,20.6897892 37.45968,20.7645984 36.9101285,20.9515512 C36.3573414,21.1083239 35.8214029,21.3193496 35.3101285,21.5815512 C33.1894501,22.6228059 31.6374517,24.5481624 31.0701285,26.8415512 C30.8726431,27.9803525 30.7922241,29.1363751 30.8301285,30.2915512 L30.8301285,33.7115512 L30.7501285,40.5415512 C30.7501285,40.7735108 30.9381689,40.9615512 31.1701285,40.9615512 L31.1701285,40.9615512 L48.1701285,41.1715512 L48.1701285,41.1715512 C48.5141997,41.1715512 48.794667,40.8955792 48.8001285,40.5515512 L48.8001285,40.5515512 C48.8501285,36.8215512 48.8001285,33.0615512 48.6501285,29.2615512 Z M31.5401285,26.9915512 C31.9985661,24.7766156 33.416102,22.8792419 35.4101285,21.8115512 C37.4101285,20.5415512 39.8101285,20.9315512 42.0101285,21.0115512 C43.8155951,21.5044882 45.3970876,22.6023547 46.4901285,24.1215512 C47.0140863,24.8666625 47.3908421,25.7050289 47.6001285,26.5915512 C47.7761302,27.4701179 47.8199467,28.3700421 47.7301285,29.2615512 C47.5901285,32.8115512 47.5401285,36.3715512 47.5601285,39.9315512 L31.5601285,40.1215512 L31.4901285,33.7215512 L31.4901285,30.3015512 C31.4034727,29.1990749 31.4202124,28.0909072 31.5401285,26.9915512 L31.5401285,26.9915512 Z" id="Shape" fill="#5161CF"></path>
                <path d="M35.9301285,15.8815512 C36.0805531,16.3180085 36.3773365,16.6889878 36.7701285,16.9315512 C37.0997934,17.1417035 37.4662348,17.2876014 37.8501285,17.3615512 C38.2046999,17.4406679 38.566838,17.4809055 38.9301285,17.4815512 C39.2632042,17.5000841 39.5970527,17.5000841 39.9301285,17.4815512 C40.6073488,17.464616 41.2795584,17.3604235 41.9301285,17.1715512 C42.6759973,16.9929183 43.3031068,16.4904972 43.6401316,15.8015512 L43.6401316,15.7015512 C43.6408579,15.5359024 43.5150495,15.3970794 43.3501285,15.3815512 L43.3001285,15.3815512 L40.0001285,15.2615512 C38.8501285,15.2115512 37.7001285,15.0715512 36.5601285,15.1215512 L36.5001285,15.1215512 L36.3301285,15.1215512 C36.1734998,15.1650968 36.0417794,15.2713407 35.9660634,15.4152012 C35.8903473,15.5590617 35.8773459,15.7277892 35.9301285,15.8815512 Z" id="Path" fill="#5161CF"></path>
                <path d="M36.6401285,38.0815512 L47.6401285,38.0815512 C47.7401285,38.0815512 47.8201285,38.0815512 47.8201285,38.0015512 L48.1901285,27.4115512 C48.1901285,27.4115512 48.1901285,27.4115512 48.1901285,27.4115512 L48.1901285,27.4115512 L48.0601285,27.4115512 L36.2701285,27.4115512 L36.1401285,27.4115512 C36.1401285,27.4115512 36.1401285,27.4115512 36.1401285,27.4715512 L36.5101285,38.0615512 C36.5101285,38.0615512 36.5401285,38.0815512 36.6401285,38.0815512 Z" id="Path" fill="#5161CF"></path>
                <path d="M13.4201285,14.6915512 C13.4093187,14.3404001 13.1214459,14.0613849 12.7701285,14.0615512 C10.8558829,14.0968019 8.9484832,14.3009272 7.07012846,14.6715512 L6.87012846,18.0615512 L6.87012846,18.0615512 C6.8643003,18.1849714 6.95702689,18.2909446 7.08012846,18.3015512 L7.08012846,18.3015512 C8.97012846,18.4115512 10.8501285,18.4615512 12.7401285,18.5415512 C12.9800287,18.5540057 13.1891181,18.3797646 13.2201285,18.1415512 L13.2201285,18.0615512 C13.3532123,16.9501232 13.4066819,15.8306038 13.3801285,14.7115512 L13.4201285,14.6915512 Z" id="Path" fill="#5161CF"></path>
                <polygon id="Path" fill="#FFFFFF" points="19.9901285 19.9915512 17.8001285 18.5315512 2.80012846 18.5315512 0.610128464 19.9915512 0.610128464 39.1715512 2.80012846 40.6215512 17.8001285 40.6215512 19.9901285 39.1715512"></polygon>
                <path d="M17.8001285,41.2615512 L2.80012846,41.2615512 C2.67987377,41.2593397 2.56243167,41.2247979 2.46012846,41.1615512 L0.270128464,39.6715512 C0.101908052,39.5607697 0.000497554642,39.3729725 6.28432049e-05,39.1715512 L6.28432049e-05,19.9915512 C-0.00289781017,19.7865912 0.0989196925,19.5942692 0.270128464,19.4815512 L2.46012846,18.0215512 C2.56243167,17.9583046 2.67987377,17.9237628 2.80012846,17.9215512 L17.8001285,17.9215512 C17.9203832,17.9237628 18.0378253,17.9583046 18.1401285,18.0215512 L20.3301285,19.4815512 C20.5013372,19.5942692 20.6031547,19.7865912 20.6001941,19.9915512 L20.6001941,39.1715512 C20.5997594,39.3729725 20.4983489,39.5607697 20.3301285,39.6715512 L18.1401285,41.1315512 C18.0409637,41.2054307 17.923287,41.2504247 17.8001285,41.2615512 L17.8001285,41.2615512 Z M3.00012846,40.0115512 L17.6101285,40.0115512 L19.3801285,38.8415512 L19.3801285,20.3115512 L17.6101285,19.1415512 L3.00012846,19.1415512 L1.22012846,20.3115512 L1.22012846,38.8415512 L3.00012846,40.0115512 Z" id="Shape" fill="#2D2FA7"></path>
                <polygon id="Path" fill="#BFC6F9" points="19.9901285 19.9915512 17.8001285 18.5315512 2.80012846 18.5315512 0.610128464 19.9915512 0.610128464 39.1715512 2.80012846 40.6215512 17.8001285 40.6215512 19.9901285 39.1715512"></polygon>
                <path d="M19.9301285,20.0115512 L17.7501285,18.6115512 L17.8001285,18.6115512 L2.80012846,18.7915512 L2.96012846,18.7915512 L0.780128464,20.2615512 L0.920128464,20.0115512 L1.10012846,39.1615512 L0.880128464,38.7615512 L3.11012846,40.1615512 L2.80012846,40.0615512 C5.30012846,40.0015512 7.80012846,40.0015512 10.3001285,39.9815512 L17.8001285,39.9815512 L17.4501285,40.0815512 L19.6501285,38.6415512 L19.3901285,39.1415512 C19.4501285,35.9915512 19.4801285,32.8415512 19.5801285,29.6615512 C19.6801285,26.4815512 19.7801285,23.2615512 19.9301285,20.0115512 Z M20.0401285,20.0115512 C20.1901285,23.1315512 20.3001285,26.3115512 20.3901285,29.5215512 C20.4801285,32.7315512 20.5301285,35.9715512 20.5901335,39.2115512 C20.5909233,39.4084613 20.4981334,39.594041 20.3401285,39.7115512 L20.3401285,39.7115512 L18.1601285,41.1815512 C18.059721,41.2489397 17.9410317,41.2838484 17.8201285,41.2816578 L17.8201285,41.2816578 L10.3201285,41.2816578 C7.82012846,41.2816578 5.32012846,41.2816578 2.82012846,41.1915512 L2.82012846,41.1915512 C2.71957034,41.192278 2.62143027,41.160733 2.54012846,41.1015512 L0.340128464,39.5715512 L0.340128464,39.5715512 C0.204965622,39.4841429 0.125323133,39.3324429 0.130128464,39.1715512 L0.300128464,19.9915512 L0.300128464,19.9915512 C0.299493137,19.8893732 0.352677524,19.794401 0.440128464,19.7415512 L2.65012846,18.2615512 L2.65012846,18.2615512 C2.6993218,18.2488496 2.75093513,18.2488496 2.80012846,18.2615512 L17.8001285,18.4515512 L17.8501285,18.4515512 L20.0401285,20.0115512 Z" id="Shape" fill="#5161CF"></path>
                <path d="M16.2601285,23.0115512 L16.2601285,23.0115512 L16.1401285,23.0115512 L4.46012846,23.0115512 L4.34012846,23.0115512 C4.34012846,23.0115512 4.29012846,23.0115512 4.29012846,23.0715512 L4.65012846,33.6015512 C4.65012846,33.6015512 4.73012846,33.6815512 4.83012846,33.6815512 L15.7701285,33.6815512 C15.8701285,33.6815512 15.9401285,33.6815512 15.9401285,33.6015512 L16.3101285,23.0715512 C16.3101285,23.0715512 16.2901285,23.0315512 16.2601285,23.0115512 Z" id="Path" fill="#5161CF"></path>
                <polygon id="Path" fill="#BFC6F9" points="6.97012846 15.5615512 13.6301285 15.5615512 13.8501285 10.6015512 6.75012846 10.6015512"></polygon>
                <path d="M13.8801285,10.1215512 L13.8801285,10.1215512 L10.3301285,9.99155125 C9.15012846,9.99155125 7.96012846,9.99155125 6.78012846,10.0415512 L6.70012846,10.0415512 C6.4039983,10.0731237 6.18679135,10.3346586 6.21012846,10.6315512 C6.37012846,12.4115512 6.68012846,14.1515512 6.95012846,15.6315512 L13.6601285,15.9115512 C13.7423869,15.9170302 13.8234397,15.889518 13.8853663,15.8350977 C13.9472928,15.7806774 13.984992,15.7038318 13.9901285,15.6215512 L13.9901285,15.6215512 L14.3601285,10.6215512 L14.3601285,10.6215512 C14.3685766,10.4900309 14.3214169,10.361006 14.2301471,10.2659333 C14.1388774,10.1708607 14.011884,10.1184761 13.8801285,10.1215512 L13.8801285,10.1215512 Z M7.30012846,11.1915512 C8.30012846,11.1915512 9.30012846,11.2515512 10.3001285,11.1915512 L13.3601285,11.0715512 L13.3101285,15.2615512 L7.01012846,15.5315512 C7.12012846,13.9115512 7.25012846,12.5215512 7.30012846,11.1915512 Z" id="Shape" fill="#5161CF"></path>
            </g>
        </g>
    </g>
</svg>