<?xml version="1.0" encoding="UTF-8"?>
<svg width="20px" height="20px" viewBox="0 0 20 20" version="1.1" xmlns="http://www.w3.org/2000/svg" xmlns:xlink="http://www.w3.org/1999/xlink">
    <title>Group 8</title>
    <g id="Symbols" stroke="none" stroke-width="1" fill="none" fill-rule="evenodd">
        <g id="Group-8" transform="translate(0.000000, 0.000000)" >
            <g>
                <path d="M18.1404,14.0406667 C18.0950667,15.0153333 17.9324,15.5446667 17.7950667,15.898 C17.6137333,16.3646667 17.3964,16.698 17.0484,17.0473333 C16.6977333,17.398 16.3644,17.614 15.8977333,17.7953333 C15.5457333,17.9326667 15.0150667,18.0953333 14.0417333,18.1393333 C12.9870667,18.1873333 12.6697333,18.198 10.0004,18.198 C7.32973333,18.198 7.01373333,18.1873333 5.95906667,18.1393333 C4.9844,18.0953333 4.45373333,17.9326667 4.10306667,17.7953333 C3.63506667,17.614 3.30173333,17.398 2.9524,17.0473333 C2.60306667,16.698 2.38706667,16.3646667 2.2044,15.898 C2.06706667,15.5446667 1.9044,15.0153333 1.8604,14.0406667 C1.8124,12.986 1.80173333,12.67 1.80173333,9.99933333 C1.80173333,7.33 1.8124,7.01266667 1.8604,5.95933333 C1.9044,4.98466667 2.06706667,4.45533333 2.2044,4.102 C2.38706667,3.63533333 2.60306667,3.302 2.9524,2.95266667 C3.30173333,2.602 3.63506667,2.386 4.10306667,2.20466667 C4.45373333,2.06733333 4.9844,1.90466667 5.95906667,1.86066667 C7.01373333,1.81266667 7.33106667,1.802 10.0004,1.802 C12.6697333,1.802 12.9870667,1.81266667 14.0417333,1.86066667 C15.0150667,1.90466667 15.5457333,2.06733333 15.8977333,2.20466667 C16.3644,2.386 16.6977333,2.602 17.0484,2.95266667 C17.3964,3.302 17.6137333,3.63533333 17.7950667,4.102 C17.9324,4.45533333 18.0950667,4.98466667 18.1404,5.95933333 C18.1884,7.01266667 18.1977333,7.33 18.1977333,9.99933333 C18.1977333,12.67 18.1884,12.986 18.1404,14.0406667 M19.9404,5.87666667 C19.8910667,4.81266667 19.7230667,4.086 19.4750667,3.45 C19.2204,2.79133333 18.8777333,2.234 18.3217333,1.678 C17.7657333,1.12333333 17.2084,0.780666667 16.5510667,0.524666667 C15.9137333,0.278 15.1870667,0.108666667 14.1230667,0.0606666667 C13.0564,0.0113333333 12.7164,-0.000666666667 10.0004,-0.000666666667 C7.28306667,-0.000666666667 6.9444,0.0113333333 5.87773333,0.0606666667 C4.8124,0.108666667 4.08573333,0.278 3.4484,0.524666667 C2.7924,0.780666667 2.23373333,1.12333333 1.67773333,1.678 C1.12173333,2.234 0.7804,2.79133333 0.5244,3.45 C0.279066667,4.086 0.109733333,4.81266667 0.0590666667,5.87666667 C0.0110666667,6.94333333 0.0004,7.28466667 0.0004,9.99933333 C0.0004,12.7153333 0.0110666667,13.0566667 0.0590666667,14.1233333 C0.109733333,15.1873333 0.279066667,15.914 0.5244,16.55 C0.7804,17.2073333 1.12173333,17.7646667 1.67773333,18.3206667 C2.23373333,18.8766667 2.7924,19.2193333 3.4484,19.4753333 C4.08573333,19.722 4.8124,19.8913333 5.87773333,19.9393333 C6.9444,19.9886667 7.28306667,19.9993333 10.0004,19.9993333 C12.7164,19.9993333 13.0564,19.9886667 14.1230667,19.9393333 C15.1870667,19.8913333 15.9137333,19.722 16.5510667,19.4753333 C17.2084,19.2193333 17.7657333,18.8766667 18.3217333,18.3206667 C18.8777333,17.7646667 19.2204,17.2073333 19.4750667,16.55 C19.7230667,15.914 19.8910667,15.1873333 19.9404,14.1233333 C19.9884,13.0566667 20.0004,12.7153333 20.0004,9.99933333 C20.0004,7.28466667 19.9884,6.94333333 19.9404,5.87666667" id="Fill-1" fill="#FFFFFF"></path>
                <path d="M9.99973333,13.3330667 C8.1584,13.3330667 6.6664,11.8410667 6.6664,9.99973333 C6.6664,8.15973333 8.1584,6.6664 9.99973333,6.6664 C11.8410667,6.6664 13.3330667,8.15973333 13.3330667,9.99973333 C13.3330667,11.8410667 11.8410667,13.3330667 9.99973333,13.3330667 M9.99973333,4.86506667 C7.16373333,4.86506667 4.86373333,7.16373333 4.86373333,9.99973333 C4.86373333,12.8357333 7.16373333,15.1357333 9.99973333,15.1357333 C12.8357333,15.1357333 15.1357333,12.8357333 15.1357333,9.99973333 C15.1357333,7.16373333 12.8357333,4.86506667 9.99973333,4.86506667" id="Fill-4" fill="#FFFFFF"></path>
                <path d="M15.3382667,3.46186667 C14.6756,3.46186667 14.1382667,3.9992 14.1382667,4.66186667 C14.1382667,5.32453333 14.6756,5.86186667 15.3382667,5.86186667 C16.0009333,5.86186667 16.5369333,5.32453333 16.5369333,4.66186667 C16.5369333,3.9992 16.0009333,3.46186667 15.3382667,3.46186667" id="Fill-6" fill="#FFFFFF"></path>
            </g>
        </g>
    </g>
</svg>